<svg width="1366" height="1366" viewBox="0 0 1366 1366" fill="none" xmlns="http://www.w3.org/2000/svg">
<g clip-path="url(#clip0_0_3)">
<path d="M684.76 334.76C690.76 339.24 697.093 343.187 703.293 347.373C822.4 427.493 940.813 506.947 1060.08 586.813C1060.08 591.187 1060.09 595.56 1060.16 599.92C1054.79 600.107 1049.41 600.027 1044.03 599.947C1037.28 594.52 1029.88 590.147 1022.84 585.12C926.853 521.053 831.307 456.76 735.52 392.453C718.24 381.187 701.36 369.173 683.947 358.173C679.333 361.8 674.373 364.88 669.587 368.267C592.44 420.427 515.253 472.653 438.2 524.92C401.52 549.933 364.587 574.613 328.16 599.987C322.627 599.907 317.093 599.973 311.56 599.987C311.44 595.64 311.387 591.307 311.573 586.96C314.8 585.107 317.96 583.133 321.08 581.067C381.133 540.16 441.227 499.48 501.347 458.693C562.48 417.387 623.467 375.827 684.76 334.76Z" fill="#FEFEFE"/>
<path d="M774.533 496.307C815.253 523.4 855.787 550.987 896.533 578.147C920.947 594.373 945.107 611 969.6 627.093C969.787 746.32 969.813 865.64 969.56 984.853C963.08 984.68 956.6 984.707 950.107 984.627C950 870.173 950.04 755.733 950.12 641.293C949.947 639.52 950.547 637.787 948.867 636.627C926.493 621.627 904.187 606.787 881.973 591.533C882.227 722.573 882.053 853.747 882.08 984.8C875.533 984.613 869 984.573 862.453 984.48C862.173 900.32 862.267 816.147 862.253 732C862.16 681.16 862.56 629.813 862.213 579.04C860.453 576.893 857.613 575.56 855.373 573.947C834.813 560.067 814.2 546.347 793.747 532.307C794.24 564.187 793.987 596.107 794.147 628C794.093 746.96 794.28 865.92 793.987 984.88C787.507 984.667 781.013 984.52 774.52 984.48C774.307 821.693 774.467 659.067 774.533 496.307Z" fill="#FEFEFE"/>
<path d="M592.707 501.373C593.187 506.987 593.16 512.613 593.2 518.24C562.147 538.76 531.6 560 500.653 580.667C470 601.733 438.893 622.12 408.387 643.387C408.947 757.147 408.36 870.973 408.76 984.733C402.307 984.573 395.853 984.427 389.4 984.493C389.667 867.08 389.373 749.627 389.6 632.213C417.893 613.507 445.84 594.253 473.973 575.293C509.227 551.48 544.413 527.573 579.56 503.587C583.56 500.427 587.88 501.76 592.707 501.373Z" fill="#FEFEFE"/>
<path d="M703.453 524.547C703.493 530.333 703.453 536.12 703.24 541.907C694.227 547.493 685.6 553.613 676.827 559.547C616.293 600.493 555.387 641.867 495.013 683.04C495.28 783.613 494.987 884.227 495.213 984.773C488.76 984.72 482.307 984.533 475.853 984.52C475.68 880.293 475.853 776.067 475.827 671.84C481.32 668.493 486.667 664.933 492 661.333C558.947 616.187 625.32 570.72 693.347 525.187C696.36 523.96 700.24 524.613 703.453 524.547Z" fill="#FEFEFE"/>
<path d="M562.8 701.053C569.347 700.853 575.88 700.88 582.427 701.08C582.573 795.627 582.48 890.213 582.48 984.76C575.933 984.627 569.387 984.467 562.827 984.533C562.973 920.36 562.76 856.173 562.827 792C562.8 761.68 563.027 731.373 562.8 701.053Z" fill="#FEFEFE"/>
</g>
<defs>
<clipPath id="clip0_0_3">
<rect width="1365.33" height="1365.33" fill="white"/>
</clipPath>
</defs>
</svg>
