<?xml version="1.0" standalone="no"?>
<!DOCTYPE svg PUBLIC "-//W3C//DTD SVG 20010904//EN"
 "http://www.w3.org/TR/2001/REC-SVG-20010904/DTD/svg10.dtd">
<svg version="1.0" xmlns="http://www.w3.org/2000/svg"
 width="615.000000pt" height="615.000000pt" viewBox="0 0 615.000000 615.000000"
 preserveAspectRatio="xMidYMid meet">
<metadata>
Created by potrace 1.14, written by Peter Selinger 2001-2017
</metadata>
<g transform="translate(0.000000,615.000000) scale(0.100000,-0.100000)"
fill="#000000" stroke="none">
<path d="M3387 6133 c-70 -21 -127 -85 -269 -298 -25 -38 -72 -105 -104 -147
-33 -42 -138 -183 -234 -313 -96 -130 -181 -244 -188 -253 -7 -9 -36 -48 -65
-87 -29 -38 -111 -149 -182 -245 -71 -96 -132 -177 -135 -180 -3 -3 -17 -21
-30 -40 -14 -19 -28 -39 -33 -45 -4 -5 -60 -80 -123 -165 -63 -85 -123 -166
-134 -180 -10 -14 -37 -50 -59 -80 -22 -30 -44 -59 -48 -65 -4 -5 -53 -71
-108 -145 -55 -74 -102 -137 -105 -140 -3 -3 -21 -27 -39 -55 -19 -27 -38 -52
-41 -55 -4 -3 -26 -32 -50 -65 -24 -33 -142 -192 -262 -352 -288 -388 -272
-362 -271 -437 1 -99 50 -189 123 -226 38 -19 60 -20 640 -20 330 0 600 -3
600 -6 0 -5 -253 -576 -315 -709 -12 -27 -67 -149 -120 -270 -54 -121 -115
-257 -136 -303 -22 -46 -39 -85 -39 -87 0 -3 -12 -30 -26 -62 -146 -317 -259
-577 -269 -618 -73 -276 88 -487 366 -481 110 3 174 30 249 106 56 56 182 193
243 264 10 12 40 44 65 71 26 28 84 91 128 140 122 134 122 134 220 241 50 54
113 124 139 154 27 30 54 60 59 66 6 6 47 51 91 99 44 48 94 103 111 121 17
18 66 72 110 120 43 48 84 92 89 98 6 6 51 56 100 110 50 55 97 107 105 116
80 86 266 291 300 330 8 10 53 59 100 110 47 51 93 101 102 113 10 11 57 62
105 115 146 158 276 301 306 336 10 11 37 41 60 66 23 25 87 95 142 155 55 60
105 115 110 121 9 10 140 154 190 208 11 12 58 65 105 116 47 52 115 126 152
165 129 137 146 176 124 290 -18 92 -111 172 -231 200 -36 8 -224 11 -662 8
-337 -2 -613 -1 -613 2 0 4 8 25 19 48 10 23 41 94 69 157 27 63 59 135 70
160 23 50 108 244 184 420 28 63 58 133 68 155 234 520 363 826 367 871 12
121 -98 245 -247 279 -61 15 -824 12 -873 -2z"/>
</g>
</svg>
